<svg width="26" height="25" viewBox="0 0 26 25" fill="none" xmlns="http://www.w3.org/2000/svg">
<path d="M13 0C5.82 0 0 5.03342 0 11.2421C0 13.9772 1.13222 16.4811 3.00977 18.4302C3.04768 18.5266 4.01101 21.0603 1.1582 23.644C1.10823 23.6919 1.06841 23.7497 1.04119 23.8139C1.01398 23.8781 0.999959 23.9473 1 24.0173C1 24.1528 1.05268 24.2828 1.14645 24.3786C1.24021 24.4745 1.36739 24.5283 1.5 24.5283C1.53613 24.5283 1.57214 24.5243 1.60742 24.5163C4.48328 24.3422 6.94346 22.8836 8.44531 21.7597C9.86471 22.2197 11.3948 22.4843 13 22.4843C20.18 22.4843 26 17.4509 26 11.2421C26 5.03342 20.18 0 13 0Z" fill="url(#paint0_linear_0_440)"/>
<defs>
<linearGradient id="paint0_linear_0_440" x1="29.3333" y1="7.01447e-07" x2="1.50119" y2="26.1377" gradientUnits="userSpaceOnUse">
<stop offset="0.25" stop-color="#3B768F"/>
<stop offset="0.536458" stop-color="#3EC6FF"/>
<stop offset="0.817708" stop-color="#3B768F"/>
</linearGradient>
</defs>
</svg>
