<svg width="23" height="23" viewBox="0 0 23 23" fill="none" xmlns="http://www.w3.org/2000/svg">
<path d="M4.92002 0.494151C4.53526 0.462901 4.10752 0.574229 3.71299 0.851573C3.36533 1.09376 2.61533 1.68946 1.91416 2.36329C1.56455 2.69923 1.23057 3.04884 0.972757 3.39259C0.712991 3.73634 0.486428 4.05079 0.5001 4.50782C0.513772 4.91798 0.554788 6.13087 1.42783 7.99024C2.30088 9.84767 3.99424 12.3965 7.29698 15.7012C10.6017 19.0059 13.1505 20.6992 15.0079 21.5723C16.8653 22.4453 18.0802 22.4863 18.4903 22.5C18.9454 22.5137 19.2599 22.2871 19.6036 22.0274C19.9474 21.7676 20.297 21.4356 20.6329 21.0859C21.3048 20.3848 21.9005 19.6348 22.1427 19.2871C22.6954 18.5 22.6036 17.5703 21.9884 17.1387C21.6017 16.8672 18.045 14.5 17.5099 14.1719C16.9669 13.8399 16.3419 13.9902 15.7833 14.2852C15.3439 14.5176 14.1544 15.1992 13.8146 15.3945C13.5587 15.2324 12.588 14.5859 10.5001 12.4981C8.41026 10.4102 7.76573 9.43946 7.60362 9.1836C7.79893 8.84376 8.47862 7.66017 8.71299 7.2129C9.00596 6.65626 9.17002 6.0254 8.82041 5.47853C8.67393 5.2461 8.00791 4.23243 7.33604 3.21485C6.66221 2.19728 6.02354 1.23243 5.85752 1.00196V1.00001C5.64073 0.701182 5.30283 0.525401 4.92002 0.494151ZM4.82823 1.51564C4.96494 1.53321 5.04698 1.5879 5.04698 1.5879C5.12705 1.69923 5.82823 2.75001 6.5001 3.76564C7.17198 4.78321 7.85752 5.82618 7.97666 6.01564C7.99619 6.04493 8.02354 6.37696 7.82823 6.7461V6.74806C7.60752 7.16798 6.57823 8.96681 6.57823 8.96681L6.43565 9.21876L6.58213 9.46876C6.58213 9.46876 7.34971 10.7637 9.79112 13.2051C12.2345 15.6465 13.5294 16.416 13.5294 16.416L13.7794 16.5625L14.0314 16.4199C14.0314 16.4199 15.8263 15.3926 16.2501 15.1699C16.6192 14.9766 16.9513 15.002 16.9903 15.0254C17.336 15.2383 21.1778 17.791 21.4142 17.957C21.422 17.9629 21.631 18.2793 21.3263 18.7129H21.3243C21.1407 18.9766 20.5392 19.7402 19.9122 20.3926C19.5978 20.7188 19.2755 21.0234 19.0021 21.2285C18.7286 21.4336 18.4845 21.4981 18.5235 21.5C18.0978 21.4863 17.1583 21.4766 15.4337 20.666C13.7091 19.8574 11.2481 18.2383 8.00401 14.9922C4.76182 11.75 3.14268 9.28907 2.33213 7.56251C1.52354 5.8379 1.51377 4.89845 1.5001 4.47462C1.50205 4.51368 1.56651 4.26759 1.77158 3.99415C1.97666 3.72071 2.2794 3.39649 2.60557 3.08204C3.25987 2.45509 4.02158 1.85353 4.28526 1.66993V1.67189C4.50205 1.51954 4.69151 1.50001 4.82823 1.51564Z" fill="url(#paint0_linear_0_32)"/>
<defs>
<linearGradient id="paint0_linear_0_32" x1="11.5039" y1="0.489044" x2="11.5039" y2="22.5006" gradientUnits="userSpaceOnUse">
<stop stop-color="#4ABCEC"/>
<stop offset="1" stop-color="#4A8BEC"/>
</linearGradient>
</defs>
</svg>
