<svg width="22" height="26" viewBox="0 0 22 26" fill="none" xmlns="http://www.w3.org/2000/svg">
<path d="M4.31245 0.03125L6.0937 5.875V9.6875H7.5937V5.6875L9.31245 0.03125H7.81245L6.87495 3.875H6.7812L5.81245 0.03125H4.31245ZM11.2187 2.375C10.6171 2.375 10.1367 2.54688 9.7812 2.875C9.42573 3.19922 9.24995 3.63672 9.24995 4.1875V7.875C9.24995 8.48047 9.43355 8.98828 9.7812 9.34375C10.1328 9.70312 10.5742 9.875 11.1562 9.875C11.7578 9.875 12.25 9.69141 12.5937 9.34375C12.9375 8.99609 13.0937 8.51562 13.0937 7.90625V4.21875C13.0937 3.67578 12.914 3.25 12.5625 2.90625C12.2148 2.55859 11.7695 2.375 11.2187 2.375ZM14.2187 2.5625V8.53125C14.2187 8.95703 14.3125 9.25781 14.4687 9.46875C14.625 9.67969 14.8515 9.78125 15.1562 9.78125C15.4023 9.78125 15.6445 9.71094 15.9062 9.5625C16.1718 9.41016 16.4453 9.19531 16.6875 8.90625V9.6875H18V2.5625H16.6875V7.96875C16.5625 8.12109 16.4296 8.24609 16.2812 8.34375C16.1328 8.44531 16.0039 8.5 15.9062 8.5C15.7851 8.5 15.6796 8.48047 15.625 8.40625C15.5664 8.33203 15.5625 8.19531 15.5625 8.03125V2.5625H14.2187ZM11.1562 3.625C11.332 3.625 11.4882 3.65625 11.5937 3.75C11.7031 3.84766 11.75 3.97266 11.75 4.125V8.03125C11.75 8.22266 11.6992 8.36328 11.5937 8.46875C11.4882 8.57812 11.3359 8.625 11.1562 8.625C10.9804 8.625 10.8437 8.57422 10.75 8.46875C10.6523 8.36328 10.625 8.22656 10.625 8.03125V4.125C10.625 3.97266 10.6796 3.84766 10.7812 3.75C10.8828 3.65625 10.996 3.625 11.1562 3.625ZM11 11.1562C8.4062 11.1523 5.86323 11.1758 3.37495 11.2812C1.63667 11.2812 0.218701 12.6836 0.218701 14.4062C0.113232 15.7695 0.0585454 17.1367 0.0624514 18.5C0.0585454 19.8633 0.113232 21.2305 0.218701 22.5938C0.218701 24.3164 1.63667 25.7188 3.37495 25.7188C5.86323 25.8203 8.4062 25.8477 11 25.8438C13.5976 25.8516 16.1406 25.8203 18.625 25.7188C20.3632 25.7188 21.7812 24.3164 21.7812 22.5938C21.8867 21.2305 21.9414 19.8633 21.9375 18.5C21.9453 17.1367 21.8867 15.7695 21.7812 14.4062C21.7812 12.6836 20.3632 11.2812 18.625 11.2812C16.1406 11.1758 13.5976 11.1523 11 11.1562ZM1.74995 13.375H6.3437C6.42573 13.375 6.49995 13.4492 6.49995 13.5312V14.9375C6.49995 15.0195 6.42573 15.0938 6.3437 15.0938H4.93745V23.1875C4.93745 23.2695 4.89448 23.3438 4.81245 23.3438H3.31245C3.23042 23.3438 3.1562 23.2695 3.1562 23.1875V15.0938H1.74995C1.66792 15.0938 1.62495 15.0195 1.62495 14.9375V13.5312C1.62495 13.4492 1.66792 13.375 1.74995 13.375ZM11.4062 13.375H12.75C12.832 13.375 12.9062 13.4492 12.9062 13.5312V16.25C13.0156 16.1484 13.1328 16.0664 13.25 16C13.4765 15.875 13.707 15.8125 13.9375 15.8125C14.4062 15.8125 14.75 16 15 16.3438C15.2382 16.6758 15.375 17.1406 15.375 17.75V21.7188C15.375 22.2578 15.2617 22.6758 15.0312 22.9688C14.7929 23.2734 14.4375 23.4375 14 23.4375C13.7226 23.4375 13.4765 23.3633 13.25 23.25C13.1289 23.1875 13.0156 23.1289 12.9062 23.0312V23.1875C12.9062 23.2695 12.832 23.3438 12.75 23.3438H11.4062C11.3242 23.3438 11.25 23.2695 11.25 23.1875V13.5312C11.25 13.4492 11.3242 13.375 11.4062 13.375ZM18.2187 15.7188C18.8671 15.7188 19.3984 15.9219 19.75 16.3125C20.1015 16.7031 20.2812 17.2578 20.2812 17.9688V19.8125C20.2812 19.8945 20.207 19.9375 20.125 19.9375H17.75V21.1562C17.75 21.5938 17.7968 21.7656 17.8437 21.8438C17.8828 21.9062 17.9492 22 18.1562 22C18.3242 22 18.4414 21.9531 18.5 21.875C18.5273 21.832 18.5937 21.6758 18.5937 21.1562V20.6562C18.5937 20.5742 18.6679 20.5 18.75 20.5H20.125C20.207 20.5 20.2812 20.5742 20.2812 20.6562V21.1875C20.2812 21.957 20.0742 22.543 19.7187 22.9375C19.3632 23.3359 18.8281 23.5312 18.125 23.5312C17.4882 23.5312 16.9921 23.332 16.625 22.9062C16.2617 22.4883 16.0625 21.9102 16.0625 21.1875V17.9688C16.0625 17.3125 16.2539 16.793 16.6562 16.375C17.0585 15.957 17.5859 15.7188 18.2187 15.7188ZM6.3437 15.9062H7.6562C7.73823 15.9062 7.81245 15.9805 7.81245 16.0625V21.5312C7.81245 21.7109 7.82417 21.7852 7.8437 21.8125C7.85151 21.8242 7.88667 21.875 7.99995 21.875C8.03901 21.875 8.12495 21.8594 8.2812 21.75C8.41011 21.6641 8.52339 21.5586 8.62495 21.4375V16.0625C8.62495 15.9805 8.69917 15.9062 8.7812 15.9062H10.125C10.207 15.9062 10.25 15.9805 10.25 16.0625V23.1875C10.25 23.2695 10.207 23.3438 10.125 23.3438H8.7812C8.69917 23.3438 8.62495 23.2695 8.62495 23.1875V22.7812C8.44917 22.9531 8.2773 23.082 8.0937 23.1875C7.80464 23.3516 7.5312 23.4375 7.24995 23.4375C6.89448 23.4375 6.62105 23.3164 6.43745 23.0625C6.26167 22.8242 6.18745 22.4844 6.18745 22.0312V16.0625C6.18745 15.9805 6.26167 15.9062 6.3437 15.9062ZM13.25 17.25C13.1992 17.2578 13.1484 17.2852 13.0937 17.3125C13.0312 17.3438 12.9687 17.4023 12.9062 17.4688V21.7812C12.9843 21.8633 13.0507 21.9336 13.125 21.9688C13.207 22.0078 13.2851 22.0312 13.375 22.0312C13.5429 22.0312 13.6093 21.9609 13.625 21.9375C13.664 21.8867 13.6875 21.7695 13.6875 21.5312V17.8438C13.6875 17.6406 13.6679 17.4727 13.5937 17.375C13.5195 17.2773 13.4023 17.2227 13.25 17.25ZM18.1875 17.2812C18.0273 17.2812 17.9101 17.3164 17.8437 17.4062C17.7968 17.4727 17.75 17.6367 17.75 17.9688V18.5312H18.5937V17.9688C18.5937 17.6406 18.5507 17.4805 18.5 17.4062C18.4375 17.3203 18.3398 17.2812 18.1875 17.2812Z" fill="url(#paint0_linear_0_436)"/>
<defs>
<linearGradient id="paint0_linear_0_436" x1="24.7428" y1="0.0312507" x2="-3.44025" y2="21.1914" gradientUnits="userSpaceOnUse">
<stop offset="0.25" stop-color="#3B768F"/>
<stop offset="0.536458" stop-color="#3EC6FF"/>
<stop offset="0.817708" stop-color="#3B768F"/>
</linearGradient>
</defs>
</svg>
