<svg width="32" height="22" viewBox="0 0 32 22" fill="none" xmlns="http://www.w3.org/2000/svg">
<path d="M10.5499 0.939941C4.90789 0.939941 0.319946 5.52789 0.319946 11.1699C0.319946 16.812 4.90789 21.3999 10.5499 21.3999C16.192 21.3999 20.7799 16.812 20.7799 11.1699C20.7799 5.52789 16.192 0.939941 10.5499 0.939941ZM16.1599 6.87994C16.3287 6.87994 16.4976 6.94427 16.6266 7.0733C16.8846 7.33136 16.8846 7.74852 16.6266 8.00658L8.70659 15.9266C8.57789 16.0553 8.40891 16.1199 8.23995 16.1199C8.07099 16.1199 7.90201 16.0553 7.77331 15.9266L4.47331 12.6266C4.21525 12.3685 4.21525 11.9514 4.47331 11.6933C4.73137 11.4352 5.14853 11.4352 5.40659 11.6933L8.23995 14.5267L15.6933 7.0733C15.8223 6.94427 15.9912 6.87994 16.1599 6.87994ZM24.0799 10.8399C23.9049 10.8399 23.737 10.9095 23.6133 11.0332C23.4895 11.157 23.4199 11.3249 23.4199 11.4999C23.4199 11.675 23.4895 11.8429 23.6133 11.9666C23.737 12.0904 23.9049 12.1599 24.0799 12.1599H31.9999V10.8399H24.0799Z" fill="url(#paint0_linear_0_121)"/>
<defs>
<linearGradient id="paint0_linear_0_121" x1="36.0615" y1="0.939942" x2="13.9157" y2="31.3198" gradientUnits="userSpaceOnUse">
<stop offset="0.25" stop-color="#3B768F"/>
<stop offset="0.536458" stop-color="#3EC6FF"/>
<stop offset="0.817708" stop-color="#3B768F"/>
</linearGradient>
</defs>
</svg>
