<svg width="12" height="11" viewBox="0 0 12 11" fill="none" xmlns="http://www.w3.org/2000/svg">
<path d="M9.14286 11H3.42857V3.85L7.42857 0L8.14286 0.6875C8.20952 0.751667 8.26429 0.83875 8.30714 0.94875C8.35 1.05875 8.37143 1.16417 8.37143 1.265V1.4575L7.74286 3.85H10.8571C11.1619 3.85 11.4286 3.96 11.6571 4.18C11.8857 4.4 12 4.65667 12 4.95V6.05C12 6.11417 11.9929 6.18292 11.9786 6.25625C11.9643 6.32958 11.9429 6.39833 11.9143 6.4625L10.2 10.34C10.1143 10.5233 9.97143 10.6792 9.77143 10.8075C9.57143 10.9358 9.36191 11 9.14286 11ZM2.28571 3.85V11H0V3.85H2.28571Z" fill="#DBDBDB"/>
</svg>
