<svg width="40" height="40" viewBox="0 0 40 40" fill="none" xmlns="http://www.w3.org/2000/svg">
<path d="M29.3496 12.9995C29.3496 7.83565 25.1639 3.6499 20 3.6499C14.8361 3.6499 10.6504 7.83565 10.6504 12.9995C10.6504 18.1634 14.8361 22.3491 20 22.3491C25.1639 22.3491 29.3496 18.1634 29.3496 12.9995ZM30.6504 12.9995C30.6504 18.8813 25.8818 23.6499 20 23.6499C14.1182 23.6499 9.34961 18.8813 9.34961 12.9995C9.34961 7.11768 14.1182 2.34912 20 2.34912C25.8818 2.34912 30.6504 7.11768 30.6504 12.9995Z" fill="#303030"/>
<path d="M27.7578 19.1284C28.0546 18.9266 28.4592 19.0036 28.6611 19.3003C29.9661 21.2182 30.6596 23.4865 30.6504 25.8062L30.6377 26.3442C30.5812 27.5915 30.3303 28.7858 29.916 29.894H29.915C28.3658 34.0266 24.5246 36.9829 20 36.9829C14.0867 36.9829 9.34961 31.9466 9.34961 25.8062H9.35059C9.34137 23.4865 10.0349 21.2182 11.3398 19.3003C11.5418 19.0039 11.9455 18.9268 12.2422 19.1284C12.539 19.3304 12.616 19.7349 12.4141 20.0317C11.2564 21.7331 10.6418 23.7454 10.6504 25.8032V25.8062L10.6621 26.3169C10.9141 31.5623 15.0271 35.6831 20 35.6831C23.729 35.6831 26.9672 33.37 28.4668 29.9976C24.6124 28.221 20.7864 25.6487 18.7305 24.1206L17.9307 23.5103L17.8359 23.4185C17.641 23.1874 17.6288 22.8438 17.8232 22.5972C18.0178 22.3505 18.3549 22.2826 18.625 22.4185L18.7363 22.4888L19.5156 23.0845C21.5059 24.563 25.2047 27.051 28.917 28.7749C29.1958 27.8385 29.3506 26.8422 29.3506 25.8062V25.8032L29.3447 25.4185C29.2801 23.4954 28.6713 21.6269 27.5859 20.0317C27.3841 19.735 27.4611 19.3303 27.7578 19.1284ZM16.6797 12.3491L16.8115 12.3628C17.1075 12.4236 17.3301 12.6856 17.3301 12.9995C17.3301 13.3135 17.1075 13.5755 16.8115 13.6362L16.6797 13.6499H16.667C16.308 13.6499 16.0166 13.3585 16.0166 12.9995C16.0166 12.6405 16.308 12.3491 16.667 12.3491H16.6797ZM23.3467 12.3491L23.4775 12.3628C23.7738 12.4233 23.9971 12.6853 23.9971 12.9995C23.9971 13.3137 23.7738 13.5757 23.4775 13.6362L23.3467 13.6499H23.333C22.9742 13.6497 22.6836 13.3584 22.6836 12.9995C22.6836 12.6407 22.9742 12.3493 23.333 12.3491H23.3467ZM16.3496 5.9165C16.3496 3.9305 18.0017 2.34917 20 2.34912C20.359 2.34912 20.6504 2.64053 20.6504 2.99951C20.6504 3.3585 20.359 3.6499 20 3.6499C18.6851 3.64995 17.6504 4.68257 17.6504 5.9165C17.6506 7.1503 18.6852 8.18305 20 8.18311C20.6083 8.18311 21.1587 7.96164 21.5723 7.6001C21.8425 7.36388 22.253 7.39149 22.4893 7.66162C22.7255 7.93188 22.698 8.34234 22.4277 8.57861C21.7813 9.14374 20.9283 9.48291 20 9.48291C18.0018 9.48286 16.3498 7.90235 16.3496 5.9165Z" fill="#303030"/>
</svg>
