<svg width="40" height="40" viewBox="0 0 40 40" fill="none" xmlns="http://www.w3.org/2000/svg">
<path d="M38.2134 24.091C37.7678 22.77 36.5414 21.5452 35.4517 20.6654H36.0608C36.3745 20.6663 36.6535 20.4659 36.753 20.168C36.8526 19.8704 36.7505 19.5419 36.4998 19.3535C35.2583 18.4323 33.9318 17.6314 32.5389 16.9617C34.7434 15.4264 34.2121 13.2868 33.9595 12.289C33.9419 12.2192 33.9214 12.1365 33.9038 12.0639C34.1876 11.9617 34.8011 11.8812 35.3204 11.8897C35.9386 11.7853 36.1594 11.4328 35.9824 10.8322C35.6983 10.2424 35.2489 9.74822 34.6896 9.4096C35.4605 8.96116 36.0057 8.95422 36.0258 8.964C36.7811 8.79959 36.964 8.38397 36.5748 7.71715C35.4536 6.60946 34.5006 6.13799 33.7599 5.97168C34.1706 5.40363 34.6234 4.86683 35.1141 4.36632C35.4712 3.85792 35.3774 3.45461 34.8319 3.15639C33.2629 2.63158 30.5252 3.50668 28.5111 4.60616C27.4882 5.16474 25.8865 6.20899 24.9961 7.59502C24.5681 7.21822 24.0551 6.95187 23.5014 6.81838C23.2177 5.29791 22.0256 4.11449 21.9683 4.05863C21.7466 3.8412 21.4115 3.78755 21.1334 3.92546C19.8812 4.54431 18.3585 6.30556 18.0877 7.94184C17.9387 8.84472 18.1674 9.62988 18.7494 10.2128C19.6491 11.114 20.2264 12.2549 20.5215 12.9482C19.9852 13.2631 19.1947 13.8716 18.0225 15.0301C16.9375 16.1015 16.6176 15.9355 15.7625 15.493C15.1821 15.1929 14.4599 14.8193 13.425 14.8193C12.5193 14.8193 11.8104 15.0692 11.2951 15.5401L2.29549 17.7794C1.95567 17.863 1.72356 18.177 1.74309 18.527C1.7623 18.877 2.02748 19.1639 2.37422 19.2093L6.67405 19.7893C5.63571 21.2965 2.48162 26.3458 2.47217 32.108C2.46839 34.2713 3.50107 36.1099 5.30502 37.1522C6.27408 37.7086 7.37164 38.0008 8.4884 37.9999C9.52549 38.0068 10.5462 37.7417 11.4498 37.2314C13.1942 36.2269 14.1551 34.4079 14.1551 32.1089C14.1551 28.0963 10.1743 22.1335 8.70004 20.0626L11.3165 20.4154C11.4885 20.6461 11.697 20.8468 11.9341 21.0091C13.1101 21.786 14.8854 21.6532 17.3611 20.6045C18.3242 20.1958 18.9515 20.4631 20.0922 20.9488C21.672 21.6213 23.8343 22.5418 28.1036 22.1016C32.799 21.6191 37.0292 24.8654 37.0714 24.8979C37.5555 25.2757 38.471 24.8563 38.2134 24.091ZM8.70697 32.0651C8.39046 32.0764 8.08938 31.9284 7.90514 31.6703C6.86553 30.3512 7.12158 26.3625 7.68878 22.9369C9.81082 31.2307 8.73185 32.0581 8.70697 32.0651ZM10.7204 35.9682C9.35668 36.753 7.47494 36.7215 6.03662 35.8902C4.67704 35.1047 3.92969 33.7623 3.93253 32.1102C3.93757 28.9427 5.01402 25.9488 6.08008 23.7537C5.62846 26.8709 5.3995 30.8476 6.75688 32.5716C7.21952 33.1806 7.94293 33.5338 8.70697 33.5234C9.18378 33.5262 9.6332 33.2993 9.91507 32.9137C10.253 32.4659 11.1814 31.2266 9.40078 23.7808C10.9566 26.3244 12.6947 29.7039 12.6947 32.1089C12.6947 34.3593 11.6208 35.4497 10.7204 35.9682ZM10.6319 18.8514L6.34778 18.2739L10.5034 17.2398C10.5027 17.2612 10.5031 17.2745 10.5027 17.2918C10.5027 17.3082 10.5021 17.3243 10.5021 17.3366C10.5027 17.3606 10.5034 17.3755 10.504 17.3821L10.5043 17.3862C10.4999 17.8599 10.5399 18.3329 10.6246 18.799C10.6278 18.8158 10.6287 18.835 10.6319 18.8514ZM27.954 20.6515C24.0608 21.0535 22.1781 20.2517 20.6648 19.6072C19.411 19.0736 18.328 18.6116 16.7908 19.2623C14.8564 20.0822 13.4553 20.2659 12.7407 19.7934C11.435 18.9303 11.5606 16.2772 13.425 16.2772C14.104 16.2772 14.5831 16.5253 15.0904 16.7879C16.2916 17.4102 17.3454 17.752 19.0501 16.0668C20.7212 14.4147 21.3863 14.125 21.5095 14.0821C22.0149 13.9921 22.23 13.6781 22.1548 13.1398C22.1258 13.046 21.4282 10.8303 19.7836 9.18333C19.6945 9.09371 19.4227 8.82136 19.5288 8.17979C19.6831 7.24441 20.5231 6.13136 21.312 5.52987C21.6506 5.97452 22.1012 6.70698 22.1012 7.45301C22.106 7.8519 22.4259 8.17474 22.824 8.182C23.451 8.23344 24.0192 8.57111 24.365 9.09781C23.7206 11.5174 23.1112 12.2583 23.0772 12.2978C22.8023 12.5869 22.8098 13.0438 23.0949 13.3234C23.3796 13.603 23.8359 13.6014 24.1187 13.32C24.2721 13.1685 25.0755 12.2561 25.8591 9.15998C26.1242 8.11099 27.3777 6.88717 29.2119 5.88552C30.6115 5.12119 31.9994 4.67086 33.0311 4.51843C32.5433 5.11583 32.1168 5.76087 31.7581 6.4441C31.6067 7.2826 31.9427 7.60417 32.7662 7.40851C32.7735 7.40536 33.3656 7.13806 34.4883 7.87589C33.7936 8.19336 33.1628 8.63517 32.6264 9.17955C32.2372 9.84542 32.4198 10.261 33.1741 10.4264C33.3901 10.4308 33.6024 10.4835 33.7958 10.5804C33.3942 10.6767 33.0125 10.8322 32.7587 11.0822C32.5363 11.2927 32.4104 11.5855 32.4101 11.892C32.4101 12.1166 32.4689 12.3502 32.5436 12.6456C32.8176 13.7289 33.1804 15.1964 30.8883 16.2186C29.5419 15.6612 28.1578 15.2008 26.7459 14.8414C26.4937 14.7767 26.226 14.8524 26.0446 15.0395C25.8628 15.2267 25.7951 15.4968 25.8666 15.748C25.9381 15.9989 26.1381 16.1924 26.391 16.2552C27.7011 16.5834 30.6836 17.4575 33.6496 19.2071H33.1401C32.8107 19.2058 32.5215 19.4267 32.4356 19.7452C32.3493 20.0639 32.4875 20.4006 32.7725 20.5663C33.3782 20.9292 33.958 21.3341 34.5072 21.7781C32.7316 21.0236 30.4266 20.3965 27.954 20.6515Z" fill="#303030"/>
</svg>
