<svg width="40" height="40" viewBox="0 0 40 40" fill="none" xmlns="http://www.w3.org/2000/svg">
<path d="M7.97445 22.1482C9.31672 23.0537 10.7429 23.5101 12.0207 23.5101C13.0254 23.5101 13.9371 23.2258 14.6448 22.6581C15.786 23.5946 17.71 25.4977 19.5785 27.3469C20.6356 28.393 21.5248 29.27 22.2507 29.9642L20.0201 34.6001C18.1111 33.4026 16.234 31.8846 14.963 30.7291C14.7644 30.5479 14.4565 30.5625 14.2759 30.7617C14.0952 30.9603 14.1097 31.2682 14.3086 31.4487C14.7448 31.8454 17.1843 34.0216 19.9068 35.6577C19.9393 35.6862 19.9745 35.7124 20.0153 35.732C20.0268 35.7375 20.0388 35.7397 20.0505 35.7442C21.7459 36.7474 23.5386 37.5268 25.0183 37.5268C25.2235 37.5268 25.4234 37.5116 25.6155 37.4802C26.5118 37.3333 27.1908 36.855 27.6338 36.0594C28.2218 35.0032 29.038 33.8674 29.9021 32.6652C31.8055 30.0174 33.9627 27.0158 34.3749 23.821C34.5366 22.5678 34.9042 21.7427 35.2287 21.0149C35.9626 19.3688 36.2364 18.3787 33.9441 16.0626C34.0195 15.3527 33.9558 14.6349 33.7228 14.0048C33.4201 13.1851 32.7143 12.1299 31.0721 11.7561C29.1774 11.3256 27.4714 11.637 26.3928 12.6112C25.7594 13.1839 25.0528 14.2604 25.284 16.1392C25.306 16.3175 25.1828 16.5712 25.0402 16.8651C24.6027 17.7662 23.9553 19.1186 25.9802 21.2584C25.8751 21.5218 25.8054 21.7746 25.7581 21.99C25.0148 21.5646 24.3893 21.3435 23.4803 21.0376C22.8269 20.8178 22.8257 20.7079 22.8229 20.4424C22.8199 20.1625 22.8155 19.739 22.4124 19.3092C22.1687 19.0492 21.8712 18.7924 21.5122 18.8436C21.1633 18.8949 21.0148 19.1939 20.9347 19.3545C20.9158 19.3928 20.8863 19.452 20.8646 19.4844C20.8438 19.4821 20.8069 19.4758 20.7501 19.4559C20.4542 19.3536 19.5535 19.0416 19.0826 19.5797C18.765 19.9427 18.7921 20.5007 19.1632 21.2387C19.5266 21.9624 19.7669 22.1568 20.2329 22.4944C20.3256 22.5616 20.4299 22.637 20.5504 22.7298C20.8736 22.9781 21.1586 23.2213 21.4342 23.4563C21.8285 23.7929 22.2336 24.1381 22.7491 24.4979C22.0202 25.0467 21.1266 26.0692 20.735 27.1218C20.5767 26.9653 20.4189 26.8091 20.2631 26.6548C18.3349 24.7469 16.3457 22.7785 15.1689 21.8289C15.3236 21.3051 15.6818 20.6111 16.0301 19.9368C16.285 19.443 16.5458 18.9369 16.7612 18.4424C16.9759 18.5675 17.1506 18.6496 17.256 18.676C20.2223 19.4257 21.6774 16.7763 23.0845 14.2165C23.66 13.1698 24.2549 12.0872 24.9455 11.2495C26.0881 9.86322 26.1327 7.79124 25.0622 5.84183C23.9453 3.80846 21.309 1.59839 17.5535 2.06239C12.4755 2.6895 10.8796 6.34316 9.0316 10.5737C7.85527 13.2664 6.63894 16.0507 4.37389 18.5161C4.27714 18.6212 4.2315 18.7637 4.24943 18.9056C4.26736 19.0475 4.34668 19.1745 4.46642 19.2528C5.56372 19.9679 7.0838 20.0822 8.09286 20.0822C8.17984 20.0822 8.26175 20.0812 8.3405 20.0798C8.22399 20.3681 8.11163 20.6582 8.00624 20.95C7.91975 20.873 7.80781 20.8287 7.69018 20.8268C7.54323 20.8199 7.40668 20.8873 7.31246 20.9978C2.60574 26.5237 5.11681 37.1779 5.22594 37.6289C5.26735 37.7997 5.40643 37.9411 5.5768 37.9852C5.7338 38.0258 5.91022 37.9814 6.02926 37.8713C6.15624 37.7538 6.21228 37.5676 6.17164 37.3995C6.06969 36.9786 3.77722 27.2578 7.75304 22.0025M22.2317 13.7485C21.5811 14.932 21.0108 15.9106 20.4161 16.6151C19.7781 16.4796 19.483 16.22 19.0897 15.7046C18.9264 15.4911 18.6214 15.4503 18.4078 15.613C18.1943 15.7762 18.1533 16.0814 18.3162 16.2949C18.6887 16.7827 19.0592 17.1419 19.6075 17.3754C19.0014 17.7988 18.332 17.9446 17.5062 17.7366C17.2513 17.6479 15.7212 16.6753 15.0548 15.5715C15.3149 15.0023 15.5563 14.4148 15.7964 13.8307C16.6637 11.7194 17.5491 9.56692 19.2101 8.068C20.3155 9.60257 21.7743 10.2968 23.9417 10.2968C24.1018 10.2968 24.2667 10.2923 24.4348 10.2847C24.3631 10.4053 24.2847 10.5218 24.1947 10.6309C23.446 11.539 22.8287 12.6621 22.2317 13.7485ZM24.0998 6.12027C24.138 6.18362 24.1744 6.24725 24.2092 6.3106C24.7716 7.33485 24.968 8.38426 24.803 9.28855C24.8007 9.28869 24.7985 9.2882 24.7962 9.28841C22.4112 9.47629 21.0373 8.96153 19.9765 7.46584C21.0337 6.74415 22.3633 6.25463 24.0998 6.12027ZM8.79718 19.0924C8.17442 19.1175 6.66003 19.1777 5.50831 18.7026C7.6224 16.2303 8.8407 13.4413 9.92324 10.9633C11.7233 6.8421 13.1452 3.58712 17.6729 3.02778C20.262 2.71011 22.2415 3.84495 23.4343 5.20965C18.006 5.88999 16.358 9.9028 14.8964 13.4612C13.5685 16.6937 12.4705 19.0861 9.10424 19.0861L8.79718 19.0924ZM14.1821 21.769C13.0013 22.8778 10.8632 22.7818 8.83473 21.5422C9.00805 21.0441 9.19845 20.5496 9.40539 20.0622C12.0711 20.0628 13.5122 18.5296 14.5657 16.5639C14.9637 17.0644 15.4676 17.5217 15.9383 17.8832C15.7251 18.4001 15.4435 18.952 15.1654 19.491C14.7361 20.3221 14.332 21.1094 14.1821 21.769ZM23.6529 25.0705C24.5629 25.5955 25.2678 25.8434 25.9064 25.8434C26.9638 25.8434 27.8413 25.1662 29.1742 23.9516C29.3728 23.7708 29.387 23.4632 29.2062 23.2647C29.0253 23.0661 28.7176 23.0515 28.5189 23.2327C26.5142 25.0595 26.0127 25.3968 23.7888 24.0185C23.0661 23.5703 22.5801 23.1557 22.0657 22.7168C21.7808 22.4736 21.4861 22.2221 21.1432 21.9585C21.0145 21.8594 20.9028 21.7786 20.8037 21.7067C20.4211 21.4296 20.3055 21.346 20.0325 20.8022C19.8929 20.5247 19.8488 20.3404 19.8393 20.246C19.9237 20.2501 20.1053 20.2624 20.4319 20.3759C21.1624 20.6277 21.5271 20.2536 21.7028 19.9755C21.8465 20.1288 21.8476 20.2371 21.8499 20.4531C21.8558 21.015 21.9611 21.5535 23.1698 21.9601C24.291 22.3373 24.8716 22.5463 25.8094 23.1652C25.9471 23.2568 26.1358 23.2736 26.2867 23.2073C26.5548 23.0899 26.5955 22.8406 26.6384 22.5764C26.8099 21.5246 27.1928 20.4209 28.7328 20.2058C28.999 20.1687 29.1847 19.9229 29.1474 19.6569C29.1103 19.3912 28.864 19.2078 28.5985 19.2424C27.5712 19.3856 26.913 19.8419 26.4859 20.3754C25.1527 18.8677 25.5385 18.0661 25.9151 17.2901C26.1075 16.8939 26.3064 16.4841 26.2494 16.0204C26.1046 14.8454 26.3724 13.9411 27.045 13.3337C27.8727 12.5859 29.2975 12.3503 30.8559 12.7053C31.8333 12.9276 32.4907 13.4784 32.8101 14.3425C33.2626 15.5669 32.8875 17.0308 32.2833 17.8441C31.0667 19.4816 30.82 20.0181 31.4016 20.6743C31.5281 20.8169 31.6372 20.9398 31.6372 21.3714C31.6097 21.8794 29.9074 24.2764 28.3965 26.1099C27.7343 26.9134 27.2701 27.3986 26.8211 27.8677C26.2041 28.5122 25.5675 29.177 24.444 30.6402C23.8385 30.1539 22.7139 29.0706 21.5269 27.9035C21.6968 26.7898 23.0063 25.3709 23.6529 25.0705ZM34.3398 20.6188C34.0056 21.3688 33.5895 22.3019 33.4096 23.6967C33.0291 26.6479 30.948 29.543 29.112 32.0974C28.2309 33.3231 27.3987 34.4811 26.7835 35.5864C26.4882 36.1169 26.0546 36.4222 25.4579 36.5201C24.2448 36.7211 22.5721 36.0825 20.8576 35.1032L22.9941 30.6629C23.6079 31.2266 24.0511 31.5922 24.3204 31.7354C24.3927 31.774 24.471 31.7924 24.5484 31.7924C24.697 31.7924 24.8423 31.7243 24.937 31.5989C26.2064 29.9164 26.8463 29.2482 27.524 28.5403C27.9853 28.0582 28.4623 27.56 29.1475 26.7286C29.7257 26.0267 32.6102 22.4706 32.6102 21.3735C32.6102 20.5706 32.3094 20.2314 32.1296 20.0287C32.1117 20.0084 32.0938 19.9903 32.0786 19.9714C32.106 19.8431 32.2831 19.476 33.0644 18.4242C33.3329 18.0628 33.5379 17.6446 33.6904 17.2032C35.1455 18.7968 34.889 19.3871 34.3398 20.6188ZM21.7407 12.6909C21.7542 12.9595 21.5475 13.1879 21.2791 13.2012C21.2709 13.2015 21.2627 13.2018 21.2545 13.2018C20.997 13.2018 20.7821 12.9997 20.7691 12.7397C20.7661 12.6783 20.7284 12.5604 20.6408 12.506C20.5303 12.4379 20.3216 12.462 20.0684 12.5731C19.8224 12.6809 19.5355 12.5681 19.4279 12.322C19.3204 12.0756 19.4329 11.7889 19.6791 11.6812C20.3959 11.3686 20.8763 11.5077 21.1531 11.679C21.5618 11.9321 21.7246 12.3679 21.7407 12.6909Z" fill="#303030"/>
</svg>
