<svg width="40" height="40" viewBox="0 0 40 40" fill="none" xmlns="http://www.w3.org/2000/svg">
<path d="M2.00945 27.1933C2.00945 25.452 2.00945 23.7058 2.00945 21.9546C2.00945 20.917 2.17194 20.7612 3.23946 20.7612C4.87695 20.7612 6.51445 20.7612 8.15194 20.7612C8.99463 20.7612 9.19868 20.9714 9.21191 21.8251C9.22325 22.5925 9.22136 22.5756 10.0074 22.4631C11.8968 22.2041 13.6785 22.4818 15.1919 23.7465C15.4035 23.9211 15.6728 24.0113 15.9477 23.9998C17.4857 24.0242 19.0293 23.8928 20.5616 24.0729C22.4359 24.2944 23.9626 25.0655 24.7505 26.8874C24.8733 27.1783 25.066 27.1876 25.3173 27.1783C26.4814 27.1368 27.6156 26.8009 28.6125 26.2026C29.8803 25.452 31.1329 24.6696 32.3913 23.9022C33.9368 22.964 36.3421 23.2605 37.5985 24.557C38.1654 25.1406 38.137 25.5534 37.4814 26.0187C34.7965 27.9194 32.1268 29.8427 29.4155 31.7058C26.0044 34.05 22.3377 34.5203 18.4153 33.1168C16.6128 32.4714 14.7914 31.8803 12.97 31.2893C12.4385 31.109 11.8759 31.0372 11.3159 31.0782C10.7558 31.1191 10.2098 31.272 9.71071 31.5276C9.54512 31.5915 9.40492 31.7072 9.31121 31.8571C9.2175 32.007 9.17536 32.1831 9.19112 32.3588C9.19112 33.5522 9.10043 33.6291 7.87987 33.6291C6.23985 33.6291 4.60173 33.6291 2.96738 33.6291C2.21161 33.6291 2.00378 33.4227 2 32.6684C2.00945 30.8465 2.00945 29.0189 2.00945 27.1933ZM36.1758 25.1912C35.01 24.7578 34.0219 24.5608 33.0072 25.2231C31.9567 25.908 30.859 26.5234 29.7952 27.1933C28.2767 28.1665 26.5008 28.6688 24.6938 28.6362C22.4548 28.6099 20.214 28.6362 17.975 28.6362C17.6746 28.6362 17.3742 28.6362 17.0757 28.6137C16.9451 28.5972 16.8227 28.542 16.7242 28.4553C16.6258 28.3686 16.556 28.2544 16.524 28.1277C16.4812 28.0045 16.4764 27.8714 16.51 27.7454C16.5437 27.6195 16.6143 27.5063 16.7129 27.4203C16.9302 27.2045 17.2117 27.2008 17.4951 27.2008C19.2586 27.2008 21.0183 27.2008 22.7742 27.2008C22.9196 27.2008 23.135 27.2852 23.1879 27.0863C23.2125 26.9906 23.0935 26.8368 22.999 26.7355C22.3415 25.9605 21.461 25.6097 20.4804 25.5121C18.9254 25.3507 17.3629 25.4671 15.8041 25.4445C15.3091 25.4445 14.8594 25.3714 14.4702 25.0261C13.0777 23.7709 11.4471 23.6451 9.68993 23.9866C9.34606 24.0467 9.20813 24.2062 9.21191 24.5814C9.2308 26.2495 9.22891 27.9175 9.21191 29.5856C9.21191 30.0078 9.27804 30.1485 9.74661 29.9759C10.9192 29.5386 12.2084 29.5201 13.3932 29.9233C15.2127 30.5163 17.0454 31.0829 18.8404 31.7471C22.3812 33.0606 25.6669 32.599 28.7353 30.4581C30.6492 29.124 32.5481 27.7693 34.4545 26.4221C34.9911 26.0412 35.5221 25.6603 36.1777 25.1912H36.1758ZM7.75895 27.2796H7.77028C7.77028 25.7541 7.77028 24.2287 7.77028 22.7032C7.77028 22.328 7.6607 22.1779 7.26014 22.1854C6.1416 22.2079 5.02307 22.2041 3.90642 22.1854C3.56822 22.1854 3.44729 22.2961 3.44729 22.6301C3.45611 25.6835 3.45611 28.7369 3.44729 31.7903C3.44729 32.0961 3.55688 32.2049 3.86675 32.2012C5.02559 32.1887 6.18317 32.1887 7.3395 32.2012C7.6418 32.2012 7.76084 32.1149 7.75706 31.794C7.75139 30.2911 7.75895 28.7844 7.75895 27.2796Z" fill="#303030"/>
<path d="M29.3785 13.8659C29.4069 17.7705 26.3913 21.7464 21.4618 21.7464C16.5683 21.7464 13.5263 17.8062 13.5376 13.8659C13.5565 9.55032 17.0444 5.97404 21.426 6.00031C22.4702 5.9911 23.5058 6.18803 24.4728 6.57965C25.4397 6.97127 26.3186 7.54979 27.0585 8.28159C27.7984 9.01339 28.3845 9.8839 28.7828 10.8425C29.1811 11.8012 29.3836 12.8289 29.3785 13.8659ZM27.9274 13.8659C27.9225 12.3858 27.4043 10.9525 26.46 9.80735C25.5158 8.66218 24.2031 7.87501 22.7429 7.5783C22.3291 7.49199 22.1761 7.54265 22.1761 8.00235C22.1761 8.58589 22.1761 9.09625 22.8959 9.27638C23.1075 9.32891 23.287 9.54094 23.4627 9.6948C23.5547 9.77267 23.624 9.87367 23.6632 9.98722C23.7024 10.1008 23.7102 10.2227 23.6857 10.3403C23.595 10.9163 22.9923 11.0908 22.4349 10.6968C21.8265 10.2708 21.1595 10.222 20.657 10.5673C20.4083 10.7376 20.2198 10.9812 20.1181 11.2637C20.0164 11.5462 20.0066 11.8532 20.0901 12.1415C20.1705 12.4194 20.337 12.665 20.5659 12.8435C20.7949 13.022 21.0746 13.1243 21.3655 13.136C22.8997 13.2767 23.9804 14.1135 24.2639 15.3782C24.5473 16.6428 24.0409 17.9262 22.9073 18.4704C22.2554 18.7837 22.1307 19.1721 22.1685 19.8007C22.1949 20.221 22.3178 20.2829 22.707 20.206C24.1814 19.9143 25.5081 19.1231 26.4602 17.9677C27.4124 16.8124 27.931 15.3645 27.9274 13.8715V13.8659ZM14.9906 13.8978C14.9952 15.3903 15.5212 16.835 16.4787 17.9854C17.4363 19.1358 18.7661 19.9206 20.2413 20.206C20.6192 20.2735 20.725 20.206 20.7458 19.8213C20.7817 19.1815 20.7004 18.7331 19.9787 18.4479C19.2569 18.1627 19.0472 17.5848 19.3438 17.1494C19.6159 16.7498 19.9522 16.7742 20.6777 17.2207C20.9271 17.3684 21.214 17.4416 21.5042 17.4316C21.7944 17.4217 22.0755 17.3289 22.314 17.1645C22.5504 16.9928 22.7267 16.7519 22.8182 16.4756C22.9097 16.1993 22.9118 15.9015 22.8241 15.624C22.7543 15.3522 22.5987 15.1098 22.38 14.9322C22.1614 14.7546 21.8913 14.6512 21.6092 14.637C21.3707 14.6171 21.1336 14.5839 20.8988 14.5376C20.3383 14.4264 19.8239 14.1519 19.4211 13.7493C19.0183 13.3466 18.7454 12.8339 18.6372 12.2766C18.4237 11.0232 18.947 9.79612 20.0675 9.2745C20.6456 9.00243 20.7571 8.66282 20.7571 8.09804C20.7571 7.53327 20.5682 7.49574 20.0901 7.60457C18.6437 7.91859 17.3491 8.7147 16.4214 9.86058C15.4937 11.0065 14.9888 12.4331 14.9906 13.9034V13.8978Z" fill="#303030"/>
</svg>
