<svg width="40" height="40" viewBox="0 0 40 40" fill="none" xmlns="http://www.w3.org/2000/svg">
<path d="M8 26.6H15.8V35C15.8009 35.7954 16.1173 36.5579 16.6797 37.1203C17.2421 37.6827 18.0046 37.9991 18.8 38H34.4C34.5248 37.9978 34.6459 37.9569 34.7465 37.883C34.8471 37.8091 34.9224 37.7058 34.9618 37.5873C35.0013 37.4689 35.003 37.3411 34.9668 37.2216C34.9307 37.1021 34.8583 36.9968 34.7597 36.9201C34.468 36.6908 34.2306 36.3996 34.0646 36.0676C33.8987 35.7357 33.8083 35.3711 33.8 35C33.8823 33.48 34.702 33.3293 34.9578 32.809C34.9824 32.7457 34.9959 32.6787 34.9978 32.6109C35 32.6 35 15.2 35 15.2C34.9995 14.7228 34.8097 14.2652 34.4722 13.9278C34.1348 13.5903 33.6772 13.4005 33.2 13.4H24.2V3.8C24.1995 3.32277 24.0097 2.86524 23.6722 2.52778C23.3348 2.19033 22.8772 2.00052 22.4 2H8C7.20464 2.00094 6.44212 2.31731 5.87971 2.87971C5.31731 3.44212 5.00094 4.20464 5 5V23.6C5.00093 24.3954 5.3173 25.1579 5.87971 25.7203C6.44212 26.2827 7.20464 26.5991 8 26.6ZM6.2 23.6C6.20052 23.1228 6.39033 22.6652 6.72778 22.3278C7.06524 21.9903 7.52277 21.8005 8 21.8H22.2934C21.9608 22.3413 21.7844 22.9641 21.7837 23.5994C21.7829 24.2348 21.9579 24.8579 22.2893 25.4H8C7.52277 25.3995 7.06524 25.2097 6.72778 24.8722C6.39033 24.5348 6.20052 24.0772 6.2 23.6ZM33.0893 36.8H18.8C18.3226 36.8 17.8648 36.6104 17.5272 36.2728C17.1896 35.9352 17 35.4774 17 35C17 34.5226 17.1896 34.0648 17.5272 33.7272C17.8648 33.3896 18.3226 33.2 18.8 33.2H33.0934C32.7608 33.7413 32.5844 34.3641 32.5837 34.9994C32.5829 35.6348 32.7579 36.2579 33.0893 36.8ZM33.2 14.6C33.3591 14.6002 33.5116 14.6634 33.6241 14.7759C33.7366 14.8884 33.7998 15.0409 33.8 15.2V32H18.8C18.1488 32.0023 17.5163 32.2185 17 32.6154V26.6H23.6C23.7259 26.6 23.8486 26.5603 23.9507 26.4867C24.0528 26.413 24.1292 26.3091 24.169 26.1897C24.2088 26.0703 24.21 25.9413 24.1724 25.8211C24.1349 25.701 24.0605 25.5957 23.9598 25.5201C23.668 25.2908 23.4306 24.9996 23.2647 24.6676C23.0987 24.3357 23.0083 23.9711 23 23.6C23.0844 22.0821 23.9005 21.9277 24.1578 21.409C24.1824 21.3457 24.1959 21.2787 24.1978 21.2109C24.2 21.2 24.2 14.6 24.2 14.6H33.2ZM8 3.2H22.4C22.5591 3.20016 22.7116 3.26342 22.8241 3.37591C22.9366 3.4884 22.9998 3.64092 23 3.8V20.6H8C7.34877 20.6023 6.71633 20.8185 6.2 21.2153V5C6.20052 4.52277 6.39033 4.06524 6.72778 3.72778C7.06524 3.39033 7.52277 3.20052 8 3.2Z" fill="#303030"/>
<path d="M15.1999 10.4C14.7227 10.4005 14.2651 10.5903 13.9277 10.9278C13.5902 11.2652 13.4004 11.7228 13.3999 12.2C13.403 12.3571 13.4675 12.5067 13.5797 12.6168C13.6919 12.7268 13.8428 12.7884 13.9999 12.7884C14.1571 12.7884 14.3079 12.7268 14.4201 12.6167C14.5323 12.5067 14.5968 12.3571 14.5999 12.2C14.6001 12.0409 14.6633 11.8884 14.7758 11.7759C14.8883 11.6634 15.0408 11.6002 15.1999 11.6C15.6738 11.5947 16.1264 11.4027 16.4597 11.0657C16.7929 10.7287 16.9797 10.2739 16.9797 9.79997C16.9797 9.32606 16.7928 8.87127 16.4596 8.53429C16.1264 8.19731 15.6737 8.00533 15.1998 8H13.9999C13.8428 8.00307 13.6932 8.06763 13.5831 8.17982C13.4731 8.29202 13.4115 8.44288 13.4115 8.60002C13.4115 8.75715 13.4731 8.90802 13.5832 9.0202C13.6932 9.13239 13.8428 9.19694 13.9999 9.2H15.1999C15.357 9.20306 15.5066 9.26762 15.6167 9.37981C15.7267 9.492 15.7883 9.64287 15.7883 9.8C15.7883 9.95713 15.7267 10.108 15.6167 10.2202C15.5066 10.3324 15.357 10.3969 15.1999 10.4Z" fill="#303030"/>
<path d="M14.0001 15.2C14.1577 15.1977 14.308 15.1334 14.4186 15.0212C14.5293 14.9089 14.5913 14.7576 14.5913 14.6C14.5913 14.4424 14.5293 14.2911 14.4186 14.1788C14.308 14.0666 14.1577 14.0023 14.0001 14C13.8425 14.0023 13.6922 14.0666 13.5816 14.1788C13.4709 14.2911 13.4089 14.4424 13.4089 14.6C13.4089 14.7576 13.4709 14.9089 13.5816 15.0212C13.6922 15.1334 13.8425 15.1977 14.0001 15.2Z" fill="#303030"/>
</svg>
