<svg width="40" height="40" viewBox="0 0 40 40" fill="none" xmlns="http://www.w3.org/2000/svg">
<path d="M27.2 4C24.5391 3.99809 21.9726 4.98617 20 6.772C18.45 5.37554 16.5282 4.45872 14.4676 4.1327C12.4069 3.80668 10.2959 4.08547 8.39058 4.93526C6.48522 5.78505 4.8673 7.16935 3.73299 8.92032C2.59868 10.6713 1.99669 12.7137 2.00001 14.8C2.00001 19.708 4.99401 24.832 10.904 30.028C13.6283 32.4092 16.5783 34.5192 19.712 36.328C19.8006 36.3753 19.8996 36.4 20 36.4C20.1005 36.4 20.1994 36.3753 20.288 36.328C23.4217 34.5192 26.3717 32.4092 29.096 30.028C35.006 24.832 38 19.708 38 14.8C37.9967 11.9367 36.8577 9.1916 34.8331 7.16693C32.8084 5.14226 30.0633 4.00334 27.2 4ZM8.70201 26.2C8.67201 26.164 8.63601 26.128 8.60001 26.092V20.8C8.60144 20.323 8.79154 19.866 9.12879 19.5288C9.46605 19.1915 9.92306 19.0014 10.4 19H14C14.477 19.0014 14.934 19.1915 15.2712 19.5288C15.6085 19.866 15.7986 20.323 15.8 20.8V26.2H8.70201ZM14 15.4V16C14 16.4774 13.8104 16.9352 13.4728 17.2728C13.1352 17.6104 12.6774 17.8 12.2 17.8C11.7226 17.8 11.2648 17.6104 10.9272 17.2728C10.5897 16.9352 10.4 16.4774 10.4 16V15.4H14ZM10.4 14.2V13.6C10.4 13.1226 10.5897 12.6648 10.9272 12.3272C11.2648 11.9896 11.7226 11.8 12.2 11.8C12.6774 11.8 13.1352 11.9896 13.4728 12.3272C13.8104 12.6648 14 13.1226 14 13.6V14.2H10.4ZM17 33.202C14.4563 31.4812 12.069 29.5397 9.86601 27.4H15.8V29.2C15.8 29.3591 15.8632 29.5117 15.9757 29.6243C16.0883 29.7368 16.2409 29.8 16.4 29.8H17V33.202ZM19.064 19.096C19.5556 19.4255 20.1342 19.601 20.726 19.6H21.2V20.2C21.2 20.5183 21.0736 20.8235 20.8485 21.0485C20.6235 21.2736 20.3183 21.4 20 21.4C19.6818 21.4 19.3765 21.2736 19.1515 21.0485C18.9264 20.8235 18.8 20.5183 18.8 20.2V18.922L19.064 19.096ZM18.842 17.506C18.9132 17.2225 19.0856 16.9749 19.3267 16.8097C19.5679 16.6446 19.8611 16.5734 20.1511 16.6095C20.4411 16.6457 20.7079 16.7867 20.9011 17.006C21.0944 17.2253 21.2007 17.5077 21.2 17.8V18.4H20.726C20.3716 18.4013 20.0248 18.2968 19.73 18.1L18.842 17.506ZM21.2 22.6C21.677 22.6014 22.134 22.7915 22.4712 23.1288C22.8085 23.466 22.9986 23.923 23 24.4V28.6H17V24.4C17.0014 23.923 17.1915 23.466 17.5288 23.1288C17.8661 22.7915 18.3231 22.6014 18.8 22.6H21.2ZM19.4 34.75C19.076 34.552 18.668 34.3 18.2 34V33.4H19.4V34.75ZM21.8 34C21.332 34.3 20.924 34.552 20.6 34.75V33.4H21.8V34ZM21.8 32.2H20.6V31H19.4V32.2H18.2V29.8H21.8V32.2ZM23 33.202V29.8H23.6C23.7591 29.8 23.9118 29.7368 24.0243 29.6243C24.1368 29.5117 24.2 29.3591 24.2 29.2V27.4H30.134C27.931 29.5397 25.5438 31.4812 23 33.202ZM31.4 26.092C31.364 26.128 31.328 26.164 31.298 26.2H24.2V20.8C24.2014 20.323 24.3915 19.866 24.7288 19.5288C25.0661 19.1915 25.5231 19.0014 26 19H29.6C30.077 19.0014 30.534 19.1915 30.8712 19.5288C31.2085 19.866 31.3986 20.323 31.4 20.8V26.092ZM26.774 14.356C27.3573 14.6471 28.0001 14.7991 28.652 14.8H29.6V16C29.6 16.4774 29.4104 16.9352 29.0728 17.2728C28.7352 17.6104 28.2774 17.8 27.8 17.8C27.3226 17.8 26.8648 17.6104 26.5272 17.2728C26.1897 16.9352 26 16.4774 26 16V13.972L26.774 14.356ZM26.228 12.742C26.4178 12.39 26.7197 12.1116 27.0858 11.9509C27.452 11.7901 27.8613 11.7564 28.2489 11.855C28.6364 11.9536 28.9798 12.1789 29.2246 12.4951C29.4694 12.8112 29.6016 13.2001 29.6 13.6H28.652C28.1853 13.6009 27.7248 13.492 27.308 13.282L26.228 12.742ZM30.272 11.908C30.7686 12.0528 31.205 12.3542 31.5164 12.7672C31.8278 13.1802 31.9974 13.6828 32 14.2V16.6C31.9997 16.7178 32.0353 16.8329 32.102 16.93L32.678 17.8H30.182C30.5809 17.2846 30.7982 16.6517 30.8 16V13.6C30.7998 12.9955 30.6157 12.4053 30.272 11.908ZM31.982 19H33.8C33.9088 19.0008 34.0156 18.9715 34.1088 18.9154C34.202 18.8593 34.2778 18.7785 34.328 18.682C34.3809 18.5874 34.4061 18.4799 34.4008 18.3717C34.3955 18.2635 34.3599 18.1589 34.298 18.07L33.2 16.42V14.2C33.2 13.2452 32.8207 12.3295 32.1456 11.6544C31.4705 10.9793 30.5548 10.6 29.6 10.6H27.8C27.0044 10.6 26.2413 10.9161 25.6787 11.4787C25.1161 12.0413 24.8 12.8043 24.8 13.6V16C24.8022 16.6752 25.035 17.3293 25.46 17.854C24.7703 17.9802 24.1467 18.344 23.6973 18.8821C23.2479 19.4203 23.0012 20.0989 23 20.8V22.018C22.7014 21.7887 22.3611 21.6196 21.998 21.52C22.2595 21.1294 22.3994 20.67 22.4 20.2V17.8C22.4 17.1635 22.1472 16.553 21.6971 16.1029C21.247 15.6529 20.6365 15.4 20 15.4C19.3635 15.4 18.753 15.6529 18.303 16.1029C17.8529 16.553 17.6 17.1635 17.6 17.8V20.2C17.6007 20.67 17.7406 21.1294 18.002 21.52C17.6389 21.6196 17.2986 21.7887 17 22.018V20.8C16.9988 20.0989 16.7521 19.4203 16.3028 18.8821C15.8534 18.344 15.2297 17.9802 14.54 17.854C14.965 17.3293 15.1979 16.6752 15.2 16V13.6C15.2 12.8043 14.8839 12.0413 14.3213 11.4787C13.7587 10.9161 12.9957 10.6 12.2 10.6C11.4044 10.6 10.6413 10.9161 10.0787 11.4787C9.51608 12.0413 9.20001 12.8043 9.20001 13.6V16C9.20215 16.6752 9.43503 17.3293 9.86001 17.854C9.17034 17.9802 8.54666 18.344 8.09727 18.8821C7.64788 19.4203 7.40118 20.0989 7.40001 20.8V24.7C4.98801 21.73 3.20001 18.34 3.20001 14.8C3.19616 12.9012 3.75665 11.0441 4.81031 9.46445C5.86397 7.88481 7.36328 6.65391 9.11786 5.92803C10.8724 5.20215 12.8031 5.01404 14.6648 5.38758C16.5265 5.76112 18.2353 6.67946 19.574 8.026C19.6873 8.13841 19.8404 8.20149 20 8.20149C20.1596 8.20149 20.3127 8.13841 20.426 8.026C21.7648 6.67946 23.4735 5.76112 25.3352 5.38758C27.1969 5.01404 29.1276 5.20215 30.8822 5.92803C32.6367 6.65391 34.1361 7.88481 35.1897 9.46445C36.2434 11.0441 36.8039 12.9012 36.8 14.8C36.8 18.34 35.012 21.73 32.6 24.7V20.8C32.5982 20.1483 32.3809 19.5154 31.982 19Z" fill="#303030"/>
</svg>
