<svg width="40" height="40" viewBox="0 0 40 40" fill="none" xmlns="http://www.w3.org/2000/svg">
<path d="M12.6765 32.6198C12.0374 34.1365 11.69 35.7576 11.6522 37.4C11.6522 37.7314 11.9242 38 12.2597 38H30.4847C30.6633 38 30.8329 37.9223 30.9483 37.7876C31.0637 37.653 31.1132 37.475 31.0837 37.301C31.0339 37.001 29.8262 29.957 27.3834 25.1324C26.8248 23.9096 26.5409 22.5817 26.5512 21.2402C27.8364 21.4932 29.1342 21.6794 30.4392 21.7982L30.4847 21.8C30.7634 21.8 31.0063 21.6128 31.074 21.3458C32.0527 17.4812 31.8753 12.1304 31.758 8.58981C31.7271 7.64781 31.6973 6.83061 31.6973 6.21381C31.6956 5.03093 31.2286 3.89499 30.3948 3.04581C29.7835 2.39062 28.9264 2.01247 28.0244 2.00001H20.8662C20.2273 1.99819 19.6347 2.32903 19.3067 2.87061C18.5004 4.2343 17.4049 5.40957 16.0955 6.31581C15.7737 6.52583 15.4309 6.70256 15.0725 6.84321C13.6272 7.39984 12.7074 8.81022 12.7919 10.34C12.8331 11.474 13.3342 12.5441 14.1825 13.3094C14.0554 13.3541 13.9313 13.4064 13.8107 13.466C13.0654 13.8212 12.5226 14.4901 12.3338 15.2858C9.51779 17.1184 7.87681 20.2717 8.00723 23.6C8.00723 28.58 10.4403 31.2326 12.6765 32.6198ZM20.3456 3.49161C20.4552 3.31086 20.6528 3.20017 20.8662 3.20001H23.7615C23.6352 4.36221 23.0933 6.80001 20.7647 6.80001C19.7744 6.79953 18.7863 6.70692 17.8135 6.52341C18.8047 5.64202 19.658 4.6203 20.3456 3.49161ZM14.0063 10.2992C13.9371 9.27597 14.5505 8.32743 15.5196 7.95921C15.8648 7.82003 16.1978 7.65307 16.5153 7.46001C17.9036 7.81854 19.3327 8.00001 20.7678 8.00001C23.7998 8.00001 24.818 5.13381 24.9899 3.20001H26.0779C25.1071 7.15701 24.9104 11.2607 25.4984 15.2906C24.5581 15.1114 23.6066 14.9958 22.6504 14.9444C21.8752 14.9217 21.1046 14.8165 20.3522 14.6306C19.8419 14.4626 19.3195 14.2508 18.8189 14.0462C18.0293 13.6946 17.2082 13.4162 16.3664 13.2146C15.0357 12.832 14.0913 11.6655 14.0063 10.2992ZM14.3538 14.537C14.8779 14.2981 15.4679 14.2391 16.0299 14.3696C16.0797 14.3859 16.1313 14.3962 16.1836 14.4002C16.9267 14.5914 17.6522 14.8441 18.3523 15.1556C18.8748 15.368 19.4149 15.5882 19.9653 15.7694C20.8119 15.9906 21.6815 16.1152 22.5569 16.1408C24.2876 16.2686 26.2505 16.4132 27.6902 17.48C27.8639 17.6086 28.0938 17.636 28.2934 17.5518C28.493 17.4676 28.6319 17.2846 28.6579 17.0718C28.6838 16.859 28.5929 16.6486 28.4192 16.52C27.922 16.16 27.3749 15.8724 26.7948 15.6662C26.0939 11.5196 26.2735 7.27441 27.3221 3.20001H28.0244C28.5988 3.21804 29.1414 3.465 29.5285 3.88461C30.1318 4.50952 30.4733 5.33667 30.4847 6.20001C30.4847 6.84081 30.5121 7.67181 30.5455 8.62881C30.6554 11.948 30.8189 16.8878 30.0163 20.5502C28.1762 20.3468 21.7738 19.46 16.2632 16.5098C15.5163 15.8588 14.6006 15.426 13.6187 15.26C13.7738 14.9445 14.0331 14.6906 14.3538 14.54V14.537ZM12.8581 16.4H12.8672C13.8319 16.426 14.7559 16.7889 15.4752 17.4242C15.5164 17.4646 15.563 17.4991 15.6137 17.5268C18.6732 19.1152 21.9397 20.2798 25.321 20.9876C25.2816 22.6002 25.6139 24.2006 26.293 25.6676C28.2206 29.4692 29.3845 34.889 29.7557 36.8H12.8982C12.9917 35.5638 13.2786 34.3494 13.7487 33.2C15.6308 34.0644 17.6838 34.505 19.7593 34.49C20.3215 34.49 20.8833 34.4592 21.4421 34.3976C21.6578 34.3738 21.8443 34.2381 21.9313 34.0417C22.0183 33.8453 21.9926 33.618 21.8639 33.4453C21.7352 33.2727 21.523 33.181 21.3072 33.2048C18.7121 33.5213 16.0808 33.0528 13.7609 31.8614C11.6893 30.7214 9.22223 28.3646 9.22223 23.6C9.22223 20.4758 10.4548 18.0614 12.8581 16.4Z" fill="#303030"/>
<path d="M14.4115 28.5423C14.7566 28.8267 15.1235 29.1297 15.5092 29.4561C15.7366 29.6481 16.0717 29.6481 16.299 29.4561C16.6848 29.1297 17.0517 28.8267 17.3967 28.5423C19.4282 26.8707 20.7647 25.7667 20.7647 24.0555C20.7931 23.3168 20.5193 22.598 20.005 22.0609C19.4907 21.5239 18.7793 21.2139 18.031 21.2007C17.2265 21.1996 16.4573 21.5263 15.9047 22.1037C15.3522 21.5263 14.5829 21.1996 13.7785 21.2007C13.0302 21.2139 12.3187 21.5239 11.8044 22.0609C11.2902 22.598 11.0164 23.3168 11.0447 24.0555C11.0447 25.7667 12.3812 26.8707 14.4115 28.5423ZM13.7785 22.4007C14.4426 22.4236 15.0451 22.7914 15.3628 23.3679C15.4662 23.5677 15.6739 23.6939 15.9011 23.6949H15.9047C16.1326 23.694 16.341 23.5679 16.4454 23.3679C16.7632 22.7909 17.3663 22.423 18.031 22.4007C18.4575 22.4129 18.8606 22.5963 19.1472 22.9086C19.4338 23.2209 19.5792 23.635 19.5497 24.0555C19.5497 25.2051 18.4471 26.1147 16.6198 27.6213C16.3907 27.8103 16.152 28.0065 15.9047 28.2129C15.6575 28.0065 15.4187 27.8103 15.1897 27.6213C13.3623 26.1147 12.2597 25.2051 12.2597 24.0555C12.2303 23.635 12.3756 23.2209 12.6622 22.9086C12.9488 22.5963 13.3519 22.4129 13.7785 22.4007Z" fill="#303030"/>
</svg>
